<svg xmlns="http://www.w3.org/2000/svg" viewBox="0 0 100 120" width="100" height="120">
  <!-- Shield shape -->
  <path d="M50 4 L92 20 L92 55 C92 82 72 104 50 116 C28 104 8 82 8 55 L8 20 Z"
        fill="none" stroke="#2563eb" stroke-width="2" opacity="0.6"/>
  <path d="M50 10 L86 24 L86 54 C86 78 68 98 50 109 C32 98 14 78 14 54 L14 24 Z"
        fill="#0a0c14" stroke="#1e2030" stroke-width="1"/>

  <!-- Inner shield accent -->
  <path d="M50 18 L78 30 L78 52 C78 72 63 88 50 97 C37 88 22 72 22 52 L22 30 Z"
        fill="none" stroke="#2563eb" stroke-width="0.5" opacity="0.3"/>

  <!-- Globe grid lines -->
  <ellipse cx="50" cy="52" rx="20" ry="20" fill="none" stroke="#1e2030" stroke-width="0.8"/>
  <ellipse cx="50" cy="52" rx="12" ry="20" fill="none" stroke="#1e2030" stroke-width="0.5"/>
  <ellipse cx="50" cy="52" rx="20" ry="8" fill="none" stroke="#1e2030" stroke-width="0.5"/>
  <line x1="30" y1="52" x2="70" y2="52" stroke="#1e2030" stroke-width="0.5"/>
  <line x1="50" y1="32" x2="50" y2="72" stroke="#1e2030" stroke-width="0.5"/>

  <!-- Missile trajectory arc -->
  <path d="M35 60 Q50 30 65 45" fill="none" stroke="#dc2626" stroke-width="1.5" stroke-linecap="round" opacity="0.8"/>
  <circle cx="65" cy="45" r="2" fill="#dc2626" opacity="0.9"/>

  <!-- Crosshair at center -->
  <circle cx="50" cy="52" r="6" fill="none" stroke="#38bdf8" stroke-width="0.8" opacity="0.5"/>
  <line x1="50" y1="44" x2="50" y2="48" stroke="#38bdf8" stroke-width="0.8" opacity="0.5"/>
  <line x1="50" y1="56" x2="50" y2="60" stroke="#38bdf8" stroke-width="0.8" opacity="0.5"/>
  <line x1="42" y1="52" x2="46" y2="52" stroke="#38bdf8" stroke-width="0.8" opacity="0.5"/>
  <line x1="54" y1="52" x2="58" y2="52" stroke="#38bdf8" stroke-width="0.8" opacity="0.5"/>

  <!-- Stars -->
  <circle cx="38" cy="28" r="1.2" fill="#e0e4ef" opacity="0.7"/>
  <circle cx="50" cy="24" r="1.2" fill="#e0e4ef" opacity="0.7"/>
  <circle cx="62" cy="28" r="1.2" fill="#e0e4ef" opacity="0.7"/>

  <!-- Text -->
  <text x="50" y="86" text-anchor="middle" font-family="monospace" font-size="7" font-weight="700" fill="#e0e4ef" letter-spacing="2">STRATCOM</text>
</svg>
